#!OML:ASF F:\VICON\USERDATA\INSTALL\rory3\rory3.ASF
:FULLY-SPECIFIED
:DEGREES
180
root -0.641039 16.0399 -2.02294 2.20838 2.03681 7.05944
lowerback 12.5327 -0.509807 -10.2015
upperback -4.70504 -2.39387 0.764978
thorax -11.8777 -0.312671 7.15764
lowerneck -10.3551 -4.76849 -3.60147
upperneck 18.2118 -6.39591 2.39237
head 7.49703 -3.09454 0.760741
rclavicle -3.67752e-015 2.38542e-015
rhumerus -52.208 -14.5087 -71.8328
rradius 18.759
rwrist 8.32822
rhand -6.09724 18.1116
rfingers 7.12502
rthumb 19.7389 -10.9062
lclavicle -3.67752e-015 2.38542e-015
lhumerus -31.399 1.80144 87.3964
lradius 28.3367
lwrist 3.08701
lhand -5.83646 16.5863
lfingers 7.12502
lthumb 19.9896 45.5781
rfemur -33.898 21.7523 5.94417
rtibia 24.2263
rfoot -11.7075 -15.5609
rtoes -0.269742
lfemur 22.5589 -10.4512 -35.6081
ltibia 3.18055e-014
lfoot -9.78126 5.13643
ltoes 4.10403
181
root -0.663927 16.0222 -1.86878 2.12859 2.1955 7.15251
lowerback 12.5558 -0.471049 -10.1741
upperback -4.7167 -2.35022 0.6763
thorax -11.918 -0.295457 7.03452
lowerneck -10.7041 -4.92552 -3.62787
upperneck 18.6728 -6.60516 2.362
head 7.71768 -3.19234 0.720232
rclavicle 9.79014e-015 9.54166e-015
rhumerus -52.1358 -14.2192 -72.2754
rradius 19.0266
rwrist 7.68446
rhand -5.82013 17.4287
rfingers 7.12502
rthumb 20.0053 -11.5615
lclavicle 9.79014e-015 9.54166e-015
lhumerus -31.6361 1.71711 87.3741
lradius 27.9682
lwrist 2.93779
lhand -6.07226 16.9699
lfingers 7.12502
lthumb 19.7629 45.9852
rfemur -33.6675 21.4623 6.32189
rtibia 24.9321
rfoot -11.5383 -15.2922
rtoes 1.25225
lfemur 23.2014 -10.1856 -35.5768
ltibia -9.54166e-015
lfoot -9.59432 4.8114
ltoes 2.5531
182
root -0.689031 16.0119 -1.71193 2.05534 2.41433 7.20759
lowerback 12.5721 -0.487153 -10.2057
upperback -4.73285 -2.38008 0.678889
thorax -11.9399 -0.304932 7.06292
lowerneck -10.2619 -4.89282 -3.86983
upperneck 18.2864 -6.5681 2.61352
head 7.5278 -3.17548 0.860261
rclavicle 1.18774e-014 2.94201e-014
rhumerus -52.0344 -14.1611 -72.2184
rradius 18.7571
rwrist 8.07174
rhand -6.37708 18.3025
rfingers 7.12502
rthumb 19.4698 -10.7427
lclavicle 1.18774e-014 2.94201e-014
lhumerus -31.861 2.07839 87.3022
lradius 27.471
lwrist 2.44118
lhand -5.85831 17.7688
lfingers 7.12502
lthumb 19.9686 46.7628
rfemur -33.5342 21.472 6.55358
rtibia 25.5807
rfoot -11.8406 -15.3917
rtoes 6.91523
lfemur 23.8579 -9.98757 -35.4785
ltibia 6.99722e-014
lfoot -9.30118 4.48537
ltoes 1.00403
183
root -0.71373 16.0122 -1.54751 1.95039 2.58601 7.07323
lowerback 12.48 -0.524031 -10.0799
upperback -4.7037 -2.38705 0.747945
thorax -11.8483 -0.321707 7.06521
lowerneck -9.89634 -4.83317 -4.02561
upperneck 17.912 -6.49263 2.78758
head 7.34905 -3.14057 0.962148
rclavicle 4.45526e-014 3.97569e-015
rhumerus -51.891 -14.2456 -71.9834
rradius 18.3676
rwrist 8.83844
rhand -7.10186 19.6829
rfingers 7.12502
rthumb 18.7729 -9.43128
lclavicle 4.45526e-014 3.97569e-015
lhumerus -32.1151 2.46689 87.168
lradius 27.0302
lwrist 2.38548
lhand -5.51264 18.1873
lfingers 7.12502
lthumb 20.3008 47.1463
rfemur -33.388 21.6944 6.91413
rtibia 26.1537
rfoot -11.5491 -15.8326
rtoes 11.1835
lfemur 24.5202 -9.74272 -35.1616
ltibia 8.26944e-014
lfoot -8.88674 4.06525
ltoes -0.0369317
184
root -0.736671 16.0162 -1.38127 1.829 2.75296 6.97179
lowerback 12.3487 -0.552627 -9.96292
upperback -4.62411 -2.37917 0.799923
thorax -11.6784 -0.338451 7.04674
lowerneck -10.3928 -4.84074 -4.01666
upperneck 18.2142 -6.48469 2.73007
head 7.5337 -3.13354 0.927751
rclavicle -2.45996e-015 7.95139e-015
rhumerus -51.6007 -14.2116 -71.997
rradius 18.2559
rwrist 9.12914
rhand -7.5155 19.7427
rfingers 7.12502
rthumb 18.375 -9.40946
lclavicle -2.45996e-015 7.95139e-015
lhumerus -32.2823 2.88316 87.0112
lradius 26.6765
lwrist 2.47412
lhand -5.16233 18.3161
lfingers 7.12502
lthumb 20.6374 47.239
rfemur -33.0872 21.6932 7.32665
rtibia 26.6605
rfoot -10.7689 -16.1047
rtoes 12.9089
lfemur 25.1202 -9.4878 -34.8937
ltibia 2.22639e-014
lfoot -8.15631 3.646
ltoes -1.00029
185
root -0.762404 16.0169 -1.21952 1.72529 2.8114 6.65498
lowerback 12.2211 -0.557681 -9.6665
upperback -4.58927 -2.3079 0.895119
thorax -11.5766 -0.330366 6.96288
lowerneck -10.9483 -4.93086 -3.91407
upperneck 18.7815 -6.5735 2.46534
head 7.81039 -3.1837 0.796254
rclavicle 2.5345e-015 1.35174e-014
rhumerus -51.2949 -13.6017 -72.5643
rradius 18.3759
rwrist 8.59381
rhand -7.70736 19.5255
rfingers 7.12502
rthumb 18.1904 -9.64392
lclavicle 2.5345e-015 1.35174e-014
lhumerus -32.5446 3.29196 86.8481
lradius 26.3413
lwrist 2.46681
lhand -4.92127 19.1297
lfingers 7.12502
lthumb 20.8691 48.0273
rfemur -32.7061 21.3775 8.15373
rtibia 27.1856
rfoot -9.48675 -16.2402
rtoes 10.9439
lfemur 25.7096 -9.13985 -34.3772
ltibia 2.22639e-014
lfoot -7.36479 3.38296
ltoes -1.16427
186
root -0.788557 16.0109 -1.06118 1.66574 2.85878 6.43024
lowerback 12.1772 -0.554192 -9.47148
upperback -4.68836 -2.26389 0.955709
thorax -11.6738 -0.311822 6.91148
lowerneck -10.9303 -5.04267 -3.63834
upperneck 19.1538 -6.68953 1.95453
head 7.90626 -3.26647 0.568714
rclavicle -1.76421e-015 -1.43125e-014
rhumerus -51.211 -13.7028 -72.3715
rradius 18.1284
rwrist 9.10308
rhand -7.79978 19.94
rfingers 7.12502
rthumb 18.1015 -9.2377
lclavicle -1.76421e-015 -1.43125e-014
lhumerus -33.0349 3.91772 86.5672
lradius 25.8469
lwrist 2.30216
lhand -5.21173 19.2728
lfingers 7.12502
lthumb 20.59 48.2008
rfemur -32.3537 20.6652 9.00884
rtibia 27.8037
rfoot -8.08577 -16.0144
rtoes 9.46629
lfemur 22.9451 -8.76201 -33.9745
ltibia 5.78221
lfoot -8.97991 3.08403
ltoes -1.48373
187
root -0.811743 16.0061 -0.894767 1.47334 3.0124 6.34936
lowerback 12.1927 -0.587857 -9.3834
upperback -4.7443 -2.29395 0.999487
thorax -11.7417 -0.324509 6.91893
lowerneck -10.3635 -4.96029 -3.65445
upperneck 18.8437 -6.57748 1.92349
head 7.69809 -3.22494 0.591542
rclavicle -5.26779e-015 3.18055e-015
rhumerus -51.0792 -14.0311 -71.8426
rradius 17.6883
rwrist 9.96703
rhand -7.92003 20.6447
rfingers 7.12502
rthumb 17.9858 -8.5437
lclavicle -5.26779e-015 3.18055e-015
lhumerus -33.6251 4.47239 86.354
lradius 25.5294
lwrist 2.34982
lhand -5.38068 19.9267
lfingers 7.12502
lthumb 20.4276 48.8721
rfemur -31.7978 19.8407 9.74233
rtibia 28.473
rfoot -7.29617 -15.5941
rtoes 9.06716
lfemur 21.613 -8.46622 -33.7278
ltibia 9.29176
lfoot -9.42779 2.85422
ltoes -5.01566
188
root -0.832535 15.9977 -0.729981 1.31998 3.02391 6.12413
lowerback 12.1077 -0.596635 -9.13462
upperback -4.74743 -2.24732 1.06195
thorax -11.7046 -0.3207 6.83351
lowerneck -9.80641 -4.80421 -3.73723
upperneck 18.4787 -6.3905 2.09537
head 7.48157 -3.13318 0.698107
rclavicle 1.2424e-014 -1.19271e-014
rhumerus -50.8088 -14.1827 -71.5789
rradius 17.3007
rwrist 10.4462
rhand -8.23574 21.0532
rfingers 7.12502
rthumb 17.682 -8.16279
lclavicle 1.2424e-014 -1.19271e-014
lhumerus -34.1467 4.93119 86.1317
lradius 25.4245
lwrist 2.23384
lhand -5.281 21.6743
lfingers 7.12502
lthumb 20.5234 50.6095
rfemur -31.3991 19.2022 10.5343
rtibia 29.1949
rfoot -7.16507 -15.1465
rtoes 10.194
lfemur 20.4364 -8.05233 -33.2839
ltibia 12.4853
lfoot -9.55216 2.64614
ltoes -7.59604
189
root -0.857554 15.9875 -0.575224 1.19782 2.83857 5.75984
lowerback 12.0967 -0.520205 -8.86144
upperback -4.74653 -2.08251 1.18947
thorax -11.7277 -0.255726 6.78594
lowerneck -9.88817 -4.782 -3.73503
upperneck 18.5838 -6.35705 2.07884
head 7.52893 -3.11726 0.692527
rclavicle -5.46658e-016 -3.18055e-015
rhumerus -50.4086 -14.3028 -71.3953
rradius 17.0428
rwrist 10.7715
rhand -8.33505 20.9556
rfingers 7.12502
rthumb 17.5864 -8.26906
lclavicle -5.46658e-016 -3.18055e-015
lhumerus -34.5963 5.39034 85.924
lradius 25.108
lwrist 2.00791
lhand -5.25371 22.5019
lfingers 7.12502
lthumb 20.5496 51.4342
rfemur -31.145 18.6516 11.4735
rtibia 29.91
rfoot -6.81884 -14.6732
rtoes 9.66404
lfemur 19.2315 -7.06074 -32.4454
ltibia 15.5101
lfoot -9.3694 1.91436
ltoes -7.50459
190
root -0.883063 15.9738 -0.428085 1.10802 2.63842 5.5765
lowerback 12.2406 -0.42756 -8.78633
upperback -4.81434 -1.95211 1.28246
thorax -11.9154 -0.181368 6.82861
lowerneck -10.4384 -4.86488 -3.70138
upperneck 19.1505 -6.43082 1.86188
head 7.80808 -3.16233 0.58868
rclavicle -1.71949e-014 -6.36111e-015
rhumerus -49.989 -14.2066 -71.3857
rradius 16.8871
rwrist 10.9523
rhand -8.35303 20.7141
rfingers 7.12502
rthumb 17.5691 -8.51209
lclavicle -1.71949e-014 -6.36111e-015
lhumerus -35.094 6.05395 85.6412
lradius 24.5477
lwrist 1.52502
lhand -5.08861 22.7738
lfingers 7.12502
lthumb 20.7083 51.6889
rfemur -30.8857 17.9867 12.2345
rtibia 30.5887
rfoot -6.43321 -13.9981
rtoes 9.30337
lfemur 17.8716 -5.91089 -31.6901
ltibia 18.5536
lfoot -8.74241 0.893299
ltoes -6.3129
191
root -0.90957 15.9716 -0.279826 1.04302 2.64034 5.39676
lowerback 12.3626 -0.405647 -8.68898
upperback -4.915 -1.91263 1.36828
thorax -12.1117 -0.15078 6.86948
lowerneck -10.7212 -4.9691 -3.7662
upperneck 19.6369 -6.54155 1.73901
head 8.02216 -3.22686 0.534348
rclavicle 2.47984e-014 5.56597e-015
rhumerus -49.6384 -14.0813 -71.433
rradius 16.8682
rwrist 11.1184
rhand -8.46349 20.2333
rfingers 7.12502
rthumb 17.4628 -9.00229
lclavicle 2.47984e-014 5.56597e-015
lhumerus -35.6585 6.6596 85.3768
lradius 24.0416
lwrist 0.975717
lhand -5.01595 23.2093
lfingers 7.12502
lthumb 20.7781 52.1169
rfemur -30.5668 17.5538 12.8924
rtibia 31.2413
rfoot -6.303 -13.6164
rtoes 8.81572
lfemur 16.4236 -4.73582 -30.8106
ltibia 21.5901
lfoot -7.74942 -0.21699
ltoes -7.53215
192
root -0.931577 15.9706 -0.130453 0.877254 2.59576 5.35578
lowerback 12.4869 -0.352428 -8.63373
upperback -4.95392 -1.84658 1.35382
thorax -12.2456 -0.115326 6.81401
lowerneck -10.4446 -4.88804 -3.78809
upperneck 19.4761 -6.46971 1.9246
head 7.92367 -3.18015 0.615478
rclavicle -3.47873e-016 1.43125e-014
rhumerus -49.2155 -13.9392 -71.5945
rradius 16.7773
rwrist 11.0314
rhand -8.39125 19.7054
rfingers 7.12502
rthumb 17.5323 -9.52403
lclavicle -3.47873e-016 1.43125e-014
lhumerus -36.2128 7.0154 85.0985
lradius 23.5008
lwrist 0.449387
lhand -5.32629 22.895
lfingers 7.12502
lthumb 20.4799 51.8349
rfemur -30.1446 17.27 13.3845
rtibia 31.9049
rfoot -6.42886 -13.144
rtoes 9.35202
lfemur 15.0676 -3.58353 -30.1167
ltibia 24.6071
lfoot -6.26695 -1.13213
ltoes -8.67322
